<svg xmlns="http://www.w3.org/2000/svg" width="83.645" height="170.659" viewBox="0 0 83.645 170.659"><path d="M83.645,170.659h0c-1.05-.529-2.012-1.042-2.939-1.566a64.346,64.346,0,0,1-14.4-10.885,52.572,52.572,0,0,1-7.965-10.353A43.53,43.53,0,0,1,43,144.068a37.176,37.176,0,0,1-15.956-14.06,100.507,100.507,0,0,1-9.692-20.127c-2.657-7.037-4.576-12.122-11.367-18.733L0,85.327l5.983-5.82c6.782-6.594,8.7-11.667,11.353-18.687l.014-.038a100.049,100.049,0,0,1,9.692-20.127A37.178,37.178,0,0,1,43,26.6,43.523,43.523,0,0,1,58.339,22.81,52.364,52.364,0,0,1,66.3,12.457,64.4,64.4,0,0,1,80.7,1.572C81.68,1.02,82.672.491,83.645,0Z" fill="#fff"/></svg>