<svg xmlns="http://www.w3.org/2000/svg" width="83.645" height="170.659" viewBox="0 0 83.645 170.659"><path d="M83.645,0h0c-1.05.529-2.012,1.042-2.939,1.566A64.346,64.346,0,0,0,66.3,12.453a52.573,52.573,0,0,0-7.965,10.353A43.53,43.53,0,0,0,43,26.591a37.176,37.176,0,0,0-15.956,14.06A100.507,100.507,0,0,0,17.35,60.778C14.693,67.815,12.774,72.9,5.983,79.511L0,85.332l5.983,5.82c6.782,6.594,8.7,11.667,11.353,18.687l.014.038A100.05,100.05,0,0,0,27.041,130,37.178,37.178,0,0,0,43,144.064a43.523,43.523,0,0,0,15.341,3.785A52.365,52.365,0,0,0,66.3,158.2a64.4,64.4,0,0,0,14.4,10.885c.984.552,1.977,1.08,2.949,1.572Z" transform="translate(83.645 170.659) rotate(180)" fill="#fff"/></svg>