<svg xmlns="http://www.w3.org/2000/svg" width="132.062" height="80.096" viewBox="0 0 132.062 80.096"><g transform="translate(-318 143.698)"><path d="M6.794,3.81H131.524a3.012,3.012,0,0,1,3,3v72.76a3.012,3.012,0,0,1-3,3H6.794a3.012,3.012,0,0,1-3-3V6.814a3.012,3.012,0,0,1,3-3Z" transform="translate(314.87 -146.846)" fill="#fefefe" fill-rule="evenodd"/><path d="M128.366,1.3H3.636V-.017H128.366Zm0-1.318a.658.658,0,0,1,0,1.317V-.018Zm3.659,3.664h-1.31l0-.121-.009-.119-.016-.116-.021-.116-.026-.112-.031-.111-.036-.109-.041-.107-.047-.1-.052-.1-.057-.1-.062-.1-.066-.092-.069-.088-.074-.085-.078-.083-.083-.078-.085-.074-.088-.069-.093-.066-.1-.062-.1-.057-.1-.052-.1-.047-.107-.043-.109-.036-.111-.031-.112-.026-.116-.021-.116-.016-.119-.009-.121,0V-.015l.187.005.185.014.183.024.18.033.176.041.173.05.169.057.166.066.162.074.159.081.154.088.149.1.143.1.138.109.133.116.126.121.121.128.116.133.109.138.1.143.1.149.088.154.081.159.074.162.066.166.059.169.05.174.041.178.033.18.024.183.014.185.005.188h0Zm0,0a.655.655,0,1,1-1.31,0h1.31Zm-1.31,72.76V3.648h1.31v72.76h-1.31Zm1.31,0a.655.655,0,1,1-1.31,0h1.31Zm-3.659,3.664V78.754h0l.121,0,.119-.009.116-.016.116-.021.112-.026.111-.031.109-.036.107-.043.1-.047.1-.052.1-.057.1-.062.093-.066.088-.069.085-.074.083-.078.078-.083.074-.085.069-.088.066-.092.062-.1.057-.1.052-.1.047-.1.041-.107.036-.109.031-.111.026-.112.021-.116.016-.116.009-.119,0-.121h1.31l-.005.188-.014.185-.024.183-.033.18-.041.178-.05.175-.059.169-.066.166-.074.162-.081.159-.088.154-.1.149-.1.143-.109.138-.116.133-.121.128-.126.121-.133.116-.138.109-.143.1-.149.1-.154.088-.159.081-.162.074-.166.066-.169.057-.173.05-.176.041-.18.033-.183.024-.185.014-.187.005h0Zm0,0a.658.658,0,0,1,0-1.317v1.318ZM3.636,78.754H128.366v1.318H3.636Zm0,1.318a.658.658,0,0,1,0-1.317v1.318ZM-.023,76.408h1.31l0,.121.009.119.016.116.021.116.026.112.031.111.036.109.041.107.047.1.052.1.057.1.062.1.066.092.069.088.074.085.078.083.083.078.086.074.088.069.093.066.1.062.1.057.1.052.1.047.107.043.109.036.111.031.112.026.116.021.116.016.119.009.121,0v1.318l-.187-.005-.185-.014-.183-.024-.18-.033-.176-.041-.173-.05-.169-.057-.166-.066-.162-.074-.159-.081-.154-.088-.149-.1-.143-.1-.138-.109-.133-.116-.128-.121-.121-.128-.116-.133L.7,78.6l-.1-.143-.1-.149L.417,78.15l-.081-.159-.074-.162L.2,77.662l-.059-.169-.05-.174-.041-.178-.033-.18-.024-.183-.014-.185L-.03,76.4h0Zm0,0a.655.655,0,1,1,1.31,0Zm1.31-72.76v72.76H-.023V3.648h1.31Zm-1.31,0a.655.655,0,1,1,1.31,0ZM3.636-.017V1.3h0l-.121,0L3.4,1.314l-.116.016-.116.021-.112.026-.111.031-.109.036-.107.043-.1.047-.1.052-.1.057-.1.062-.093.066-.088.069-.086.074-.083.078L1.9,2.074l-.074.085-.069.088-.066.092-.062.1-.057.1-.052.1-.047.1-.041.107L1.4,2.952l-.031.111-.026.112-.021.116L1.3,3.406l-.009.119,0,.121H-.02l.005-.188L0,3.273.024,3.09l.033-.18L.1,2.732l.05-.174.059-.169.066-.166L.347,2.06.428,1.9l.088-.154.1-.149.1-.143.109-.138.116-.133.121-.128L1.186.935,1.319.82,1.458.711,1.6.609l.149-.1L1.9.426,2.062.345,2.225.27,2.391.2,2.56.148,2.733.1,2.909.056l.18-.033L3.272,0l.185-.014L3.643-.02h0Zm0,0a.658.658,0,0,1,0,1.317V-.018Z" transform="translate(318.03 -143.678)" fill="#0082de"/><g transform="translate(323.758 -128.257)"><path d="M40.8,93.907c-.259,0-.271-.085-.389-.247-.784-1.073-1.151-1.037.551-2.6.2-.181.916-.5.89.036A25.362,25.362,0,0,1,40.8,93.907Zm-1.016,5.522c.038.209.684.432,1.123.641.5.237.771.375.976.916a9.462,9.462,0,0,1,.3,3.452l.017,9.369a2.9,2.9,0,0,1-.24,1.646,6.35,6.35,0,0,1-1.707,2.054,12.658,12.658,0,0,1-2.9.864c-.676.173-2.7.4-2.991.779.131.171.679.264.891.3.472.086.629-.093,1.049-.194l1-.214a4.668,4.668,0,0,0,.463-.145c.2-.043.363-.021.567-.071a5.045,5.045,0,0,1,2.056-.38c1.926.406,2.123,4.145,1.244,5.218a1.987,1.987,0,0,1-1.869.587c-.76-.043-1.448-.411-2.089-.408.159.4,1.068.561,1.444.665a4.408,4.408,0,0,0,1.9.219,4.358,4.358,0,0,0,1.714-.342c1.259-.62,1.394-1.375,1.24-2.856a5.2,5.2,0,0,0-.541-1.722c-.007-.012-.016-.028-.022-.041l-.306-.508a5.5,5.5,0,0,0-1.491-1.679c.019-.378.3-.392.622-.6,1.133-.736,1.567-1.083,1.567-2.355l0-10.313c0-1.363.285-2.844-.817-3.732-.636-.513-.428-.223.079-.765.9-.961.776-1.538.741-3.115a.811.811,0,0,0-.287-.679,4.852,4.852,0,0,0-.479-.465,4.508,4.508,0,0,1-.575-.425c-.116-.3,1.114-2.992,1.384-4.2.254-1.137-.475-.84-1.237-1.418-.187-.142.124-.166-.779-.161a1.868,1.868,0,0,0-1.494.385,8.1,8.1,0,0,0-2.217,1.548,1.555,1.555,0,0,0,.13,1.462c.708,1.14,3.407,2.459,3.82,3.737a6.962,6.962,0,0,1,.038,1.859,1.63,1.63,0,0,1-.784,1.128c-.632.344-1.213-.221-1.538-.04Z" transform="translate(-34.177 -89.349)" fill="#e8553e" fill-rule="evenodd"/><path d="M36.666,311.509c.819.383,1.094.751,1.624.256a4.729,4.729,0,0,1,1.97-1,3.839,3.839,0,0,1,.758.005c.612.99.738,4.518-1.315,5.124-.53.157-5.79.356-6.4.8.13.665.346.472.935.434a26.432,26.432,0,0,1,4.589-.565c1.1,0,2.673.109,3.429-.9a4.174,4.174,0,0,0,.644-1.292,6.944,6.944,0,0,0-.138-2.937c-.157-.448-.162-.51-.57-.688a9.612,9.612,0,0,0-.943-.359c-.19-.048-.354-.052-.537-.1a3.721,3.721,0,0,0-2.655.045c-.492.211-1.367.548-1.384,1.171Z" transform="translate(-33.3 -271.936)" fill="#e8553e" fill-rule="evenodd"/><path d="M95.956,181.606c1.1.822.893.408.157,1.766-.142.218-.178.107-.183.418l.945.729c.149.138.092.129.37.109l.682-1.132c.157-.216.123-.219.071-.525a1.725,1.725,0,0,1-.689-.42l-.073-.085a5.1,5.1,0,0,1,.658-1.208c.166-.207.164-.1.116-.491a5.225,5.225,0,0,0-1.265-.658,5.258,5.258,0,0,0-.79,1.491Z" transform="translate(-85.109 -164.429)" fill="#e8553e" fill-rule="evenodd"/><path d="M97.8,306.218c-.176-.124-.416-.218-.627-.358-.378-.249-.137-.382-.01-.617l.634-1.291c-.111-.071-.078-.024-.2-.088-.755-.4-.734-.615-1.171-.615a3.529,3.529,0,0,1-.4.7,1.408,1.408,0,0,0-.344.824,3.353,3.353,0,0,1,.822.625l-.67,1.089a.735.735,0,0,0-.168.42c.036.2,1.189.879,1.209.878a3.605,3.605,0,0,0,.917-1.57Z" transform="translate(-84.894 -266.294)" fill="#e8553e" fill-rule="evenodd"/></g><path d="M19.661,256.125a.416.416,0,0,0-.131.444,1.116,1.116,0,0,0,.2.378c.093.123.15.188.2.2.009,0,.019-.028.019-.1a2.254,2.254,0,0,0-.123-.746.409.409,0,0,0-.093-.169.087.087,0,0,0-.066,0h0Zm-1.386,1.114a.8.8,0,0,1-.4-.218c0-.009.038-.009.1-.009l.1.009a.661.661,0,0,0,.142-.18l.161.057c.1.038.161.066.161.085v.029h.527c.349,0,.518-.01.518-.01a1.809,1.809,0,0,0-.142-.207,1.952,1.952,0,0,1-.273-.529.353.353,0,0,1,.093-.311c.2-.18.4-.152.613.1a1.63,1.63,0,0,1,.339,1.634.624.624,0,0,1-.254.311c-.038.019-.057.029-.057.019a1.677,1.677,0,0,1,.019-.321l.028-.3-.254-.256H18.417a.312.312,0,0,1-.142.1h0Z" transform="translate(303.214 -355.332)" fill="#e8553e"/><path d="M141.324,371.829h-1.432l-.567-1.5h-2.633l-.546,1.5H134.74l2.548-6.579h1.4l2.63,6.579ZM138.9,369.22l-.912-2.436-.886,2.436Z" transform="translate(206.544 -445.84)" fill="#0082de"/><path d="M176.63,371.829V365.25h1.256v6.579Z" transform="translate(171.892 -445.84)" fill="#0082de"/><path d="M190.26,387.139V385.88h2.476v1.259Z" transform="translate(160.616 -462.906)" fill="#0082de"/><path d="M209.517,378.5l1.256.211a2.074,2.074,0,0,1-.762,1.054,2.249,2.249,0,0,1-1.3.361,2.12,2.12,0,0,1-1.835-.814,2.749,2.749,0,0,1-.472-1.646,2.643,2.643,0,0,1,.617-1.857,2.025,2.025,0,0,1,1.562-.672,2.112,2.112,0,0,1,1.674.7,3.128,3.128,0,0,1,.586,2.154h-3.145a1.277,1.277,0,0,0,.3.872.945.945,0,0,0,.722.313.767.767,0,0,0,.5-.161.991.991,0,0,0,.3-.52Zm.074-1.277a1.215,1.215,0,0,0-.282-.834.856.856,0,0,0-.653-.287.874.874,0,0,0-.679.3,1.174,1.174,0,0,0-.263.819h1.875Z" transform="translate(147.265 -454.021)" fill="#0082de"/><path d="M238.916,365.25v2.438a1.886,1.886,0,0,1,2.251-.568,1.3,1.3,0,0,1,.529.413,1.477,1.477,0,0,1,.244.556,4.831,4.831,0,0,1,.066.947v2.794h-1.256v-2.516a3.677,3.677,0,0,0-.073-.95.616.616,0,0,0-.257-.32.825.825,0,0,0-.46-.119,1.043,1.043,0,0,0-.565.154.866.866,0,0,0-.363.46,2.688,2.688,0,0,0-.116.907v2.386H237.66v-6.579h1.256Z" transform="translate(121.406 -445.84)" fill="#0082de"/><path d="M267.32,378.66l1.265-.194a.919.919,0,0,0,.326.555,1.1,1.1,0,0,0,.689.19,1.253,1.253,0,0,0,.736-.18.4.4,0,0,0,.166-.339.334.334,0,0,0-.09-.237,1,1,0,0,0-.42-.168,6.806,6.806,0,0,1-1.931-.615,1.23,1.23,0,0,1-.565-1.075,1.334,1.334,0,0,1,.489-1.045,2.271,2.271,0,0,1,1.514-.423,2.634,2.634,0,0,1,1.451.32,1.643,1.643,0,0,1,.655.948l-1.184.221a.74.74,0,0,0-.29-.43,1.051,1.051,0,0,0-.61-.148,1.379,1.379,0,0,0-.717.14.3.3,0,0,0-.143.256.277.277,0,0,0,.126.23,4.734,4.734,0,0,0,1.18.356,3.533,3.533,0,0,1,1.408.562,1.162,1.162,0,0,1,.4.938,1.434,1.434,0,0,1-.548,1.126,2.416,2.416,0,0,1-1.619.472,2.668,2.668,0,0,1-1.541-.394,1.81,1.81,0,0,1-.741-1.068Z" transform="translate(96.87 -454.013)" fill="#0082de"/><path d="M298.527,376.72l-1.137-.2a1.788,1.788,0,0,1,.664-1.033,2.41,2.41,0,0,1,1.4-.335,3.013,3.013,0,0,1,1.254.2,1.254,1.254,0,0,1,.579.506,2.629,2.629,0,0,1,.168,1.128l-.019,1.47a5.17,5.17,0,0,0,.06.926,2.684,2.684,0,0,0,.225.639H300.47c-.033-.083-.074-.206-.121-.368a.981.981,0,0,0-.045-.147,2.267,2.267,0,0,1-.687.475,1.957,1.957,0,0,1-.781.159,1.606,1.606,0,0,1-1.154-.4,1.323,1.323,0,0,1-.422-1.009,1.369,1.369,0,0,1,.192-.721,1.263,1.263,0,0,1,.539-.484,4.151,4.151,0,0,1,1-.294,6.905,6.905,0,0,0,1.221-.309v-.128a.676.676,0,0,0-.178-.525,1.08,1.08,0,0,0-.679-.157.883.883,0,0,0-.523.135.926.926,0,0,0-.306.472Zm1.686,1.019c-.161.053-.416.117-.765.193a2.312,2.312,0,0,0-.684.219.526.526,0,0,0-.245.444.616.616,0,0,0,.2.458.688.688,0,0,0,.5.193,1.094,1.094,0,0,0,.65-.223.782.782,0,0,0,.3-.418,2.505,2.505,0,0,0,.048-.613v-.251Z" transform="translate(72.103 -454.03)" fill="#0082de"/><path d="M332.675,380h-1.256v-2.431a3.74,3.74,0,0,0-.081-1,.7.7,0,0,0-.264-.353.757.757,0,0,0-.441-.126,1.02,1.02,0,0,0-.591.18.893.893,0,0,0-.359.475,4.048,4.048,0,0,0-.1,1.1V380H328.33v-4.77h1.164v.7a1.923,1.923,0,0,1,1.576-.8,1.9,1.9,0,0,1,.764.15,1.257,1.257,0,0,1,.523.384,1.373,1.373,0,0,1,.247.53,3.892,3.892,0,0,1,.071.846V380Z" transform="translate(46.401 -454.013)" fill="#0082de"/><path d="M375.27,371.829V365.25h1.992l1.177,4.487,1.163-4.487h2v6.579h-1.229l-.005-5.18-1.294,5.18h-1.277l-1.289-5.18-.005,5.18Z" transform="translate(7.57 -445.84)" fill="#e8553e"/><path d="M420.267,378.5l1.256.211a2.074,2.074,0,0,1-.762,1.054,2.25,2.25,0,0,1-1.3.361,2.12,2.12,0,0,1-1.835-.814,2.749,2.749,0,0,1-.472-1.646,2.651,2.651,0,0,1,.617-1.857,2.025,2.025,0,0,1,1.562-.672,2.112,2.112,0,0,1,1.674.7,3.128,3.128,0,0,1,.586,2.154h-3.145a1.277,1.277,0,0,0,.3.872.944.944,0,0,0,.721.313.767.767,0,0,0,.5-.161.991.991,0,0,0,.3-.52Zm.073-1.277a1.214,1.214,0,0,0-.282-.834.856.856,0,0,0-.653-.287.875.875,0,0,0-.679.3,1.174,1.174,0,0,0-.263.819h1.875Z" transform="translate(-27.074 -454.021)" fill="#e8553e"/><path d="M451.511,371.829h-1.164v-.7a1.93,1.93,0,0,1-.689.613,1.734,1.734,0,0,1-.8.206,1.819,1.819,0,0,1-1.41-.663,2.7,2.7,0,0,1-.586-1.85,2.668,2.668,0,0,1,.57-1.845,1.855,1.855,0,0,1,1.441-.631,1.787,1.787,0,0,1,1.382.665V365.25h1.256v6.579Zm-3.357-2.476a2.222,2.222,0,0,0,.209,1.107.947.947,0,0,0,.85.5.921.921,0,0,0,.736-.371,1.717,1.717,0,0,0,.3-1.111,1.886,1.886,0,0,0-.3-1.187.93.93,0,0,0-.755-.363.94.94,0,0,0-.748.358A1.634,1.634,0,0,0,448.154,369.353Z" transform="translate(-51.651 -445.84)" fill="#e8553e"/><path d="M480.67,366.408V365.24h1.256v1.168Zm0,5.413v-4.77h1.256v4.77Z" transform="translate(-79.62 -445.832)" fill="#e8553e"/><path d="M494.506,376.72l-1.137-.2a1.8,1.8,0,0,1,.664-1.033,2.407,2.407,0,0,1,1.4-.335,3.012,3.012,0,0,1,1.254.2,1.255,1.255,0,0,1,.579.506,2.6,2.6,0,0,1,.167,1.128l-.019,1.47a5.188,5.188,0,0,0,.06.926,2.689,2.689,0,0,0,.225.639H496.45c-.033-.083-.073-.206-.121-.368a1.267,1.267,0,0,0-.045-.147,2.245,2.245,0,0,1-.687.475,1.957,1.957,0,0,1-.781.159,1.607,1.607,0,0,1-1.154-.4,1.324,1.324,0,0,1-.422-1.009,1.369,1.369,0,0,1,.192-.721,1.263,1.263,0,0,1,.539-.484,4.15,4.15,0,0,1,1-.294,6.909,6.909,0,0,0,1.221-.309v-.128a.676.676,0,0,0-.178-.525,1.078,1.078,0,0,0-.679-.157.883.883,0,0,0-.524.135.927.927,0,0,0-.306.472Zm1.688,1.019c-.161.053-.416.117-.765.193a2.315,2.315,0,0,0-.684.219.528.528,0,0,0-.247.444.616.616,0,0,0,.2.458.691.691,0,0,0,.5.193,1.1,1.1,0,0,0,.65-.223.781.781,0,0,0,.3-.418,2.488,2.488,0,0,0,.049-.613v-.251Z" transform="translate(-90.018 -454.03)" fill="#e8553e"/><path d="M136,97.974h-5.674V56.529a6.117,6.117,0,0,0-1.194-2.381l-1.249-1.716a24.922,24.922,0,0,0,5.143-2.842L136,45.62V97.974Z" transform="translate(212.219 -181.432)" fill="#0082de"/><path d="M161.11,237.553v-5.945H168.3l.067-.993a7.555,7.555,0,0,0-.337-2.12l-.99-2.244q4.828-1.319,6.664-6.61h1.316a10.907,10.907,0,0,0-.517,2.775l-.2,2.314-.067,2.381a12.629,12.629,0,0,0,.269,3.305c.169.789.439,1.2.788,1.2,1.665,0,2.566-.757,2.7-2.256a16.4,16.4,0,0,0-.394-3.5l-.99-2.842.665-.326,1.9-.8a4.822,4.822,0,0,0,3.106-3.835h.99V231.61a4.7,4.7,0,0,0,2.87-.665,3.126,3.126,0,0,0,.822-2.516,21.908,21.908,0,0,0-.663-5.155,11.191,11.191,0,0,0-.327-1.387l-.461-1.455c0-.214.327-.418.99-.587q2.905,0,5.674-5.494v23.2H161.113Z" transform="translate(184.73 -321.011)" fill="#0082de"/><path d="M326.765,219.817v-5.945h17.346l-.665-2.256a13.638,13.638,0,0,1-.653-3.7V205.94l.259-2.189.067-1.185.2-1.061a3.312,3.312,0,0,0-1.057-2.346,3.139,3.139,0,0,0-2.308-1.094l-1.057.339a5.012,5.012,0,0,0-2.241,1.387,7.1,7.1,0,0,0-1.384-2.719,20.017,20.017,0,0,0-4.221-4.162h11.74a4.154,4.154,0,0,1,2.341,1.128,9.366,9.366,0,0,1,2.015,2.042,9.9,9.9,0,0,1,1.643,5.629l-.665,2.438a18.2,18.2,0,0,0-.586,4.76q0,3.366,1.384,4.229c.743.485,2.308.733,4.682.733v5.945H326.76Z" transform="translate(47.699 -303.275)" fill="#0082de"/><path d="M520.273,82.371c-.833.09-1.429-.349-1.778-1.32V44.5h-1.79a4.355,4.355,0,0,1-1.914,3.372l-1.847.79-1.643.722.192.271a3.472,3.472,0,0,1,.935,1.218,7.244,7.244,0,0,1,.394,1.816v27.04a40.375,40.375,0,0,0,.326,5.753l.923,2.9c-2.149,3.046-3.231,5.663-3.231,7.875q0,2.234,5.863,5.686l1.847,1.512q.475.474,1.521,1.659l.327.463.6-.665c.135-.169.551-.608,1.262-1.32.484-.349,1.092-.857,1.847-1.522a22.623,22.623,0,0,0,3.557-2.042,4.773,4.773,0,0,0,2.308-3.576,7.9,7.9,0,0,0-.99-4.423l-2.239-3.509a11.341,11.341,0,0,0,.855-2.979,31.727,31.727,0,0,0,.394-5.674V52.826a4.047,4.047,0,0,1,1.329-3.046l.192-.259c-3.3-.665-5.1-2.289-5.4-4.9h-1.847l.057,36.427c0,.665-.676,1.106-2.037,1.32Zm-.2,8.6a3.545,3.545,0,0,1,2.668.993,3.617,3.617,0,0,1,1.226,2.64,3.795,3.795,0,0,1-3.567,3.9,3.827,3.827,0,0,1-2.77-.993,3.636,3.636,0,0,1-1.249-2.64,3.527,3.527,0,0,1,1.024-2.719,3.8,3.8,0,0,1,2.668-1.183Z" transform="translate(-104.577 -180.506)" fill="#0082de"/><path d="M658.21,44.9a20.89,20.89,0,0,0,4.221,4.286L665.8,50.98l-.923,1.579a5.933,5.933,0,0,0-.99,3.305V90.632a4.773,4.773,0,0,0,2.049.734c1.451,0,2.635-1.083,3.557-3.238a30.309,30.309,0,0,0,2.049,5.81l1.914,3.442h-15.24V44.9Z" transform="translate(-226.486 -180.837)" fill="#0082de"/><path d="M233.987,89.278l-.665,2.042a8.441,8.441,0,0,1-2.892,3.836,10.144,10.144,0,0,1-6.539,2.12,9.464,9.464,0,0,1-4.874-1.061,10.46,10.46,0,0,1-3.827-2.844v-1.32h1.316a5.808,5.808,0,0,0,2.837,1.253l1.126.2,1.317.067h.788q6.077,0,6.068-8.461a14.541,14.541,0,0,0-.586-4.3l-1.384-2.65a5.507,5.507,0,0,0,4.682-2.505l2.635-3.768v3.238l.068.993-.068,13.153ZM224.295,85.7a2.89,2.89,0,0,1-.8,2.087,2.685,2.685,0,0,1-2.037.824,3.068,3.068,0,0,1-2.116-.824,2.664,2.664,0,0,1-.922-2.087,2.9,2.9,0,0,1,.855-2.077,2.745,2.745,0,0,1,2.049-.891,2.776,2.776,0,0,1,2.1.891A2.909,2.909,0,0,1,224.3,85.7Z" transform="translate(139.993 -203.164)" fill="#0082de"/></g></svg>